<?xml version="1.0" standalone="no"?>
<!DOCTYPE svg PUBLIC "-//W3C//DTD SVG 20010904//EN"
 "http://www.w3.org/TR/2001/REC-SVG-20010904/DTD/svg10.dtd">
<svg version="1.0" xmlns="http://www.w3.org/2000/svg"
 width="1184.000000pt" height="1184.000000pt" viewBox="0 0 1184.000000 1184.000000"
 preserveAspectRatio="xMidYMid meet">

<g transform="translate(0.000000,1184.000000) scale(0.100000,-0.100000)"
fill="#000000" stroke="none">
<path d="M3730 7550 l0 -450 110 0 110 0 0 -1494 0 -1495 507 -535 508 -536
970 0 971 0 499 532 500 531 5 1496 5 1496 108 3 107 3 0 444 0 445 -690 0
-690 0 0 -445 0 -445 105 0 105 0 0 -1272 -1 -1273 -250 -262 -251 -263 -521
0 -522 0 -252 265 -253 266 0 1264 0 1265 105 0 105 0 0 455 0 455 -695 0
-695 0 0 -450z"/>
</g>
</svg>
